HIERARCHY
ROOT Hips
{
 OFFSET 0.000000 0.000000 0.000000
 CHANNELS 6 Xposition Yposition Zposition Yrotation Xrotation Zrotation
 JOINT Chest
 {
  OFFSET 0.000000 9.585900 0.002600
  CHANNELS 3 Yrotation Xrotation Zrotation
  JOINT Chest2
  {
   OFFSET 0.000000 9.601200 -0.005300
   CHANNELS 3 Yrotation Xrotation Zrotation
   JOINT Chest3
   {
    OFFSET 0.000000 9.561800 0.000000
    CHANNELS 3 Yrotation Xrotation Zrotation
    JOINT Chest4
    {
     OFFSET 0.000000 9.552100 0.000000
     CHANNELS 3 Yrotation Xrotation Zrotation
     JOINT Neck
     {
      OFFSET 0.000000 14.453000 0.000000
      CHANNELS 3 Yrotation Xrotation Zrotation
      JOINT Head
      {
       OFFSET 0.000000 8.936500 -0.011300
       CHANNELS 3 Yrotation Xrotation Zrotation
       End Site
       {
        OFFSET 0.000000 17.073600 -0.006000
       }
      }
     }
     JOINT RightCollar
     {
      OFFSET -2.921100 9.558500 0.000000
      CHANNELS 3 Yrotation Xrotation Zrotation
      JOINT RightShoulder
      {
       OFFSET -13.519700 0.000000 0.000000
       CHANNELS 3 Yrotation Xrotation Zrotation
       JOINT RightElbow
       {
        OFFSET 0.000000 -29.696600 0.000000
        CHANNELS 3 Yrotation Xrotation Zrotation
        JOINT RightWrist
        {
         OFFSET 0.000000 -24.004700 0.000000
         CHANNELS 3 Yrotation Xrotation Zrotation
         End Site
         {
          OFFSET 0.000000 -17.728500 0.000000
         }
        }
       }
      }
     }
     JOINT LeftCollar
     {
      OFFSET 2.921100 9.558500 0.000000
      CHANNELS 3 Yrotation Xrotation Zrotation
      JOINT LeftShoulder
      {
       OFFSET 13.519700 0.000000 0.000000
       CHANNELS 3 Yrotation Xrotation Zrotation
       JOINT LeftElbow
       {
        OFFSET 0.000000 -29.696600 0.000000
        CHANNELS 3 Yrotation Xrotation Zrotation
        JOINT LeftWrist
        {
         OFFSET 0.000000 -24.004700 0.000000
         CHANNELS 3 Yrotation Xrotation Zrotation
         End Site
         {
          OFFSET 0.000000 -17.728500 0.000000
         }
        }
       }
      }
     }
    }
   }
  }
 }
 JOINT RightHip
 {
  OFFSET -7.771700 -0.012900 -0.001300
  CHANNELS 3 Yrotation Xrotation Zrotation
  JOINT RightKnee
  {
   OFFSET 0.000000 -40.869800 0.001200
   CHANNELS 3 Yrotation Xrotation Zrotation
   JOINT RightAnkle
   {
    OFFSET 0.000000 -39.717900 0.002100
    CHANNELS 3 Yrotation Xrotation Zrotation
    JOINT RightToe
    {
     OFFSET 0.000000 -4.965400 11.033500
     CHANNELS 3 Yrotation Xrotation Zrotation
     End Site
     {
      OFFSET 0.000000 -1.423100 5.872300
     }
    }
   }
  }
 }
 JOINT LeftHip
 {
  OFFSET 7.771700 -0.012900 -0.001300
  CHANNELS 3 Yrotation Xrotation Zrotation
  JOINT LeftKnee
  {
   OFFSET 0.000000 -40.869800 0.001200
   CHANNELS 3 Yrotation Xrotation Zrotation
   JOINT LeftAnkle
   {
    OFFSET 0.000000 -39.717900 0.002100
    CHANNELS 3 Yrotation Xrotation Zrotation
    JOINT LeftToe
    {
     OFFSET 0.000000 -4.965400 11.033500
     CHANNELS 3 Yrotation Xrotation Zrotation
     End Site
     {
      OFFSET 0.000000 -1.423100 5.872300
     }
    }
   }
  }
 }
}
MOTION
Frames: 9
Frame Time: 0.008333
0.000000 85.388000 0.000000 0.000000 -5.767877 0.000000 0.000000 11.653817 0.000000 0.000000 -5.885947 0.000000 0.000000 -0.000000 0.000000 0.000000 -0.000000 0.000000 0.000000 12.528835 0.000000 0.000000 0.711642 0.000000 0.000000 -0.000000 0.000000 0.000000 0.000000 -90.000000 0.000000 -2.309062 0.000000 0.000000 2.309062 0.000000 0.000000 -0.000000 0.000000 0.000000 -0.000000 90.000000 0.000000 -2.309062 0.000000 0.000000 2.309062 0.000000 0.000000 8.520406 0.000000 0.000000 1.905762 0.000000 -0.000000 -4.658285 0.000000 0.000000 -0.000000 0.000000 0.000000 8.520406 0.000000 0.000000 1.905762 0.000000 -0.000000 -4.658285 0.000000 0.000000 -0.000000 0.000000
-18.378137 50.750693 9.586390 164.566222 -6.172627 -0.086700 2.751600 6.040871 1.000258 0.117163 0.242864 0.005457 0.198764 0.441453 0.002921 2.737122 5.830190 0.219888 1.688386 18.026855 0.075874 3.081217 -2.323676 -0.421984 2.838683 7.352355 0.677799 -8.134692 -12.817695 -8.143585 -64.708908 -74.795154 90.528788 -1.584367 3.183957 -31.431018 -4.345207 4.322575 -0.588496 18.230951 -6.459419 5.217795 78.191158 -80.818868 -103.361067 0.531790 6.930234 15.842141 -8.481219 -74.346916 3.141062 -118.447603 84.741299 -116.225719 -2.532444 -13.260542 -1.749419 -0.359590 0.711898 -0.161690 -8.895766 -77.016980 28.148279 117.569311 78.973316 112.369596 -16.716933 -18.167340 0.736259 -0.190775 -1.082539 -0.093483
-18.372387 50.751298 9.590347 164.549078 -6.183275 -0.086937 2.766621 6.054877 1.000617 0.115353 0.246916 0.003611 0.200280 0.441184 0.003589 2.743551 5.834267 0.224163 1.687494 18.031379 0.078355 3.083674 -2.275728 -0.406943 2.834168 7.351927 0.682012 -8.119436 -12.833734 -8.148371 -64.875964 -74.790187 90.723067 -1.575948 3.197910 -31.461189 -4.356394 4.314821 -0.592235 18.251923 -6.478461 5.208458 78.105134 -80.807325 -103.266058 0.521632 6.927606 15.836044 -8.459849 -74.334495 3.145078 -118.360815 84.736508 -116.138569 -2.526476 -13.260699 -1.749786 -0.364612 0.715613 -0.162287 -8.935609 -77.003829 28.193474 117.521267 78.958768 112.319044 -16.688666 -18.144621 0.741830 -0.215828 -1.096919 -0.115124
-18.364967 50.751433 9.600756 164.551998 -6.164296 -0.100165 2.761426 6.040775 1.008228 0.115701 0.247408 0.003891 0.201068 0.442419 0.004615 2.749967 5.837760 0.226886 1.691459 18.081263 0.092566 3.079990 -2.268843 -0.402595 2.832146 7.348512 0.684544 -8.102205 -12.849825 -8.151599 -64.895919 -74.785902 90.735839 -1.569100 3.173920 -31.449185 -4.358922 4.309425 -0.594164 18.253622 -6.491750 5.207001 78.077606 -80.792363 -103.214613 0.542021 6.898283 15.872972 -8.516109 -74.348843 3.210088 -118.202669 84.730293 -115.986786 -2.496880 -13.256194 -1.742315 -0.387643 0.719118 -0.171518 -9.137630 -77.018498 28.374372 117.338218 78.915729 112.142822 -16.727469 -18.098086 0.707248 -0.206683 -1.115959 -0.109766
-18.354368 50.751150 9.617599 164.590007 -6.117327 -0.137529 2.723994 5.998778 1.036562 0.116059 0.247761 0.003955 0.202305 0.439350 0.005766 2.753220 5.839589 0.227847 1.691293 18.090789 0.095911 3.078325 -2.154076 -0.366527 2.836137 7.350561 0.688263 -8.096954 -12.863231 -8.154333 -64.924813 -74.782905 90.766956 -1.565663 3.167651 -31.449842 -4.358389 4.307616 -0.602017 18.254094 -6.504541 5.213342 78.052354 -80.784657 -103.178105 0.589646 6.843122 15.979209 -8.692176 -74.387775 3.363016 -118.091426 84.728185 -115.872607 -2.478269 -13.244924 -1.739794 -0.408555 0.713806 -0.181514 -9.434077 -77.060466 28.621961 116.861441 78.820907 111.708024 -16.894073 -18.045111 0.639084 -0.143527 -1.114943 -0.078416
-18.342781 50.751331 9.631300 164.601978 -6.093311 -0.166040 2.710216 5.979576 1.059092 0.116519 0.248229 0.004004 0.204707 0.436600 0.007427 2.755954 5.841849 0.228752 1.691195 18.099847 0.099218 3.077373 -2.107435 -0.350292 2.839670 7.350089 0.692163 -8.090289 -12.875573 -8.156926 -65.079898 -74.781996 90.945202 -1.560829 3.168980 -31.456274 -4.356484 4.302992 -0.607481 18.259534 -6.513892 5.220034 78.042124 -80.776967 -103.159308 0.613568 6.805216 16.054298 -8.805403 -74.403984 3.480424 -117.966589 84.725988 -115.742757 -2.469332 -13.238767 -1.739745 -0.421286 0.713434 -0.187734 -9.679139 -77.078299 28.842779 116.499701 78.733539 111.370648 -17.003636 -17.996447 0.594226 -0.124645 -1.120343 -0.068157
-18.333068 50.751962 9.640519 164.604057 -6.094096 -0.170448 2.702391 5.983926 1.055357 0.112113 0.254302 -0.002610 0.206078 0.438139 0.007376 2.766908 5.838415 0.234132 1.693113 18.147224 0.111675 3.075240 -2.103419 -0.338327 2.840772 7.347522 0.703691 -8.074693 -12.891353 -8.158857 -65.109082 -74.782890 90.972665 -1.553329 3.140639 -31.438979 -4.340104 4.303083 -0.610026 18.260161 -6.529525 5.232129 78.102744 -80.765988 -103.198303 0.624695 6.784332 16.090253 -8.835765 -74.399721 3.515485 -117.888314 84.723873 -115.665194 -2.457138 -13.240864 -1.741541 -0.432296 0.717740 -0.192884 -9.781184 -77.075165 28.931020 116.216821 78.655267 111.107976 -17.104844 -17.943885 0.573029 -0.084511 -1.138374 -0.070203
-18.321143 50.752709 9.649145 164.597277 -6.102266 -0.182168 2.704564 5.997862 1.059991 0.114042 0.251803 0.000564 0.206836 0.439173 0.007358 2.774219 5.853469 0.230083 1.692111 18.140904 0.121460 3.068156 -2.060016 -0.322333 2.841954 7.331628 0.711096 -8.058524 -12.909186 -8.157132 -65.291084 -74.788872 91.186209 -1.558291 3.165659 -31.472405 -4.340387 4.285985 -0.601398 18.283641 -6.534067 5.238458 78.224052 -80.750849 -103.306622 0.636347 6.770564 16.127430 -8.858395 -74.387298 3.552826 -117.825360 84.724054 -115.597073 -2.438831 -13.238223 -1.741738 -0.451869 0.718033 -0.201016 -9.851473 -77.065153 29.002296 115.935060 78.582213 110.859744 -17.197378 -17.913469 0.534643 -0.050268 -1.137110 -0.058055
-18.308642 50.753384 9.657939 164.570293 -6.109472 -0.193308 2.730527 6.006024 1.070618 0.114281 0.251604 0.002425 0.205732 0.440954 0.006573 2.778870 5.852479 0.231306 1.691177 18.151605 0.123867 3.063756 -2.045087 -0.315710 2.849929 7.336027 0.718877 -8.039422 -12.931461 -8.165001 -65.351572 -74.788529 91.243367 -1.556115 3.163373 -31.470914 -4.342137 4.286701 -0.601405 18.314765 -6.537986 5.247753 78.350272 -80.727665 -103.381380 0.634835 6.765489 16.102751 -8.842900 -74.376323 3.577311 -117.686995 84.718774 -115.450080 -2.417760 -13.232304 -1.739423 -0.471283 0.718865 -0.209824 -10.000392 -77.049702 29.163560 115.713043 78.509592 110.657640 -17.271154 -17.877346 0.493459 -0.035827 -1.148895 -0.054772
